<svg xmlns="http://www.w3.org/2000/svg" viewBox="0 0 800 800">
  <defs>
    <filter id="blur">
      <feGaussianBlur stdDeviation="2"/>
    </filter>
  </defs>
  
  <!-- White background -->
  <rect width="800" height="800" fill="white"/>
  
  <!-- Concentric circles (0.4, 0.6, 0.8, 1.0) -->
  
  
  
  
  
  <!-- Axes and labels -->
  <!-- Management (0) -->
  <line x1="400" y1="420" x2="400.00" y2="120.00" stroke="#d0d0d0" stroke-width="0.5"/>
  

  <!-- Business &amp; finance (1) -->
  <line x1="400" y1="420" x2="484.52" y2="132.15" stroke="#d0d0d0" stroke-width="0.5"/>
  

  <!-- Computer &amp; math (2) -->
  <line x1="400" y1="420" x2="562.19" y2="167.62" stroke="#d0d0d0" stroke-width="0.5"/>
  

  <!-- Architecture &amp; engineering (3) -->
  <line x1="400" y1="420" x2="626.72" y2="223.54" stroke="#d0d0d0" stroke-width="0.5"/>
  

  <!-- Life &amp; social sciences (4) -->
  <line x1="400" y1="420" x2="672.89" y2="295.38" stroke="#d0d0d0" stroke-width="0.5"/>
  

  <!-- Social services (5) -->
  <line x1="400" y1="420" x2="696.95" y2="377.31" stroke="#d0d0d0" stroke-width="0.5"/>
  

  <!-- Legal (6) -->
  <line x1="400" y1="420" x2="696.95" y2="462.69" stroke="#d0d0d0" stroke-width="0.5"/>
  

  <!-- Education &amp; library (7) -->
  <line x1="400" y1="420" x2="672.89" y2="544.62" stroke="#d0d0d0" stroke-width="0.5"/>
  

  <!-- Arts &amp; media (8) -->
  <line x1="400" y1="420" x2="626.72" y2="616.46" stroke="#d0d0d0" stroke-width="0.5"/>
  

  <!-- Healthcare practitioners (9) -->
  <line x1="400" y1="420" x2="562.19" y2="672.38" stroke="#d0d0d0" stroke-width="0.5"/>
  

  <!-- Healthcare support (10) -->
  <line x1="400" y1="420" x2="484.52" y2="707.85" stroke="#d0d0d0" stroke-width="0.5"/>
  

  <!-- Protective service (11) -->
  <line x1="400" y1="420" x2="400.00" y2="720.00" stroke="#d0d0d0" stroke-width="0.5"/>
  

  <!-- Food &amp; serving (12) -->
  <line x1="400" y1="420" x2="315.48" y2="707.85" stroke="#d0d0d0" stroke-width="0.5"/>
  

  <!-- Grounds maintenance (13) -->
  <line x1="400" y1="420" x2="237.81" y2="672.38" stroke="#d0d0d0" stroke-width="0.5"/>
  

  <!-- Personal care (14) -->
  <line x1="400" y1="420" x2="173.28" y2="616.46" stroke="#d0d0d0" stroke-width="0.5"/>
  

  <!-- Sales (15) -->
  <line x1="400" y1="420" x2="127.11" y2="544.62" stroke="#d0d0d0" stroke-width="0.5"/>
  

  <!-- Office &amp; admin (16) -->
  <line x1="400" y1="420" x2="103.05" y2="462.69" stroke="#d0d0d0" stroke-width="0.5"/>
  

  <!-- Agriculture (17) -->
  <line x1="400" y1="420" x2="103.05" y2="377.31" stroke="#d0d0d0" stroke-width="0.5"/>
  

  <!-- Construction (18) -->
  <line x1="400" y1="420" x2="127.11" y2="295.38" stroke="#d0d0d0" stroke-width="0.5"/>
  

  <!-- Installation &amp; repair (19) -->
  <line x1="400" y1="420" x2="173.28" y2="223.54" stroke="#d0d0d0" stroke-width="0.5"/>
  

  <!-- Production (20) -->
  <line x1="400" y1="420" x2="237.81" y2="167.62" stroke="#d0d0d0" stroke-width="0.5"/>
  

  <!-- Transportation (21) -->
  <line x1="400" y1="420" x2="315.48" y2="132.15" stroke="#d0d0d0" stroke-width="0.5"/>
  
  
  <!-- Blue polygon (Theoretical AI coverage) -->
  <polygon points="400.00,204.00 457.47,224.26 526.51,223.15 540.57,298.20 541.90,355.20 512.84,403.78 661.31,457.57 558.28,492.28 524.70,528.05 461.63,515.90 427.05,512.11 400.00,504.00 381.41,483.33 370.81,465.43 350.12,463.22 277.20,476.08 126.81,459.28 334.67,410.61 350.88,397.57 350.12,376.78 364.32,364.48 376.33,339.40" 
           fill="rgba(30, 100, 255, 0.55)" stroke="#1a6cf5" stroke-width="3" stroke-linejoin="round" filter="url(#blur)"/>
  
  <!-- Red polygon (Observed AI coverage) -->
  <polygon points="400.00,384.00 423.67,339.40 451.90,339.24 427.21,396.43 427.29,407.54 423.76,416.58 444.54,426.40 432.75,434.95 440.81,455.36 412.98,440.19 405.07,437.27 400.00,438.00 394.93,437.27 393.51,430.10 386.40,431.79 367.25,434.95 346.55,427.69 385.15,417.87 386.36,413.77 386.40,408.21 387.02,399.81 393.24,396.97" 
           fill="rgba(230, 30, 20, 0.65)" stroke="#e02010" stroke-width="3" stroke-linejoin="round" filter="url(#blur)"/>
  
  <!-- Legend -->
  
  
  
  
  
</svg>
